<mxfile host="65bd71144e">
    <diagram id="6NqFjSkuem_A0hB2JSov" name="Page-1">
        <mxGraphModel dx="995" dy="782" grid="1" gridSize="10" guides="1" tooltips="1" connect="1" arrows="1" fold="1" page="1" pageScale="1" pageWidth="850" pageHeight="1100" math="0" shadow="0">
            <root>
                <mxCell id="0"/>
                <mxCell id="1" parent="0"/>
                <mxCell id="37" style="edgeStyle=none;html=1;exitX=0.5;exitY=1;exitDx=0;exitDy=0;entryX=0.5;entryY=0;entryDx=0;entryDy=0;" parent="1" source="3" target="4" edge="1">
                    <mxGeometry relative="1" as="geometry"/>
                </mxCell>
                <mxCell id="3" value="Particle System" style="whiteSpace=wrap;html=1;rounded=1;fontStyle=0;fontFamily=Times New Roman;fontSize=18;" parent="1" vertex="1">
                    <mxGeometry x="90" y="280" width="140" height="40" as="geometry"/>
                </mxCell>
                <mxCell id="35" style="edgeStyle=none;html=1;exitX=1;exitY=0.5;exitDx=0;exitDy=0;entryX=0;entryY=0.5;entryDx=0;entryDy=0;" parent="1" source="4" target="40" edge="1">
                    <mxGeometry relative="1" as="geometry">
                        <mxPoint x="260" y="250" as="targetPoint"/>
                    </mxGeometry>
                </mxCell>
                <mxCell id="36" style="edgeStyle=none;html=1;exitX=1;exitY=0.5;exitDx=0;exitDy=0;entryX=0;entryY=0.5;entryDx=0;entryDy=0;" parent="1" source="4" target="41" edge="1">
                    <mxGeometry relative="1" as="geometry">
                        <mxPoint x="290" y="520" as="targetPoint"/>
                    </mxGeometry>
                </mxCell>
                <mxCell id="4" value="basic SPH solver" style="whiteSpace=wrap;html=1;rounded=1;fontStyle=0;fontFamily=Times New Roman;fontSize=18;" parent="1" vertex="1">
                    <mxGeometry x="90" y="370" width="140" height="40" as="geometry"/>
                </mxCell>
                <mxCell id="24" style="edgeStyle=none;html=1;exitX=1;exitY=0.5;exitDx=0;exitDy=0;entryX=0;entryY=0.5;entryDx=0;entryDy=0;" parent="1" source="9" target="11" edge="1">
                    <mxGeometry relative="1" as="geometry"/>
                </mxCell>
                <mxCell id="25" style="edgeStyle=none;html=1;exitX=1;exitY=0.5;exitDx=0;exitDy=0;entryX=0;entryY=0.5;entryDx=0;entryDy=0;" parent="1" source="9" target="10" edge="1">
                    <mxGeometry relative="1" as="geometry"/>
                </mxCell>
                <mxCell id="26" style="edgeStyle=none;html=1;exitX=1;exitY=0.5;exitDx=0;exitDy=0;entryX=0;entryY=0.5;entryDx=0;entryDy=0;" parent="1" source="9" target="12" edge="1">
                    <mxGeometry relative="1" as="geometry"/>
                </mxCell>
                <mxCell id="9" value="Weakly Compressible" style="whiteSpace=wrap;html=1;rounded=1;fontStyle=0;fontFamily=Times New Roman;fontSize=18;" parent="1" vertex="1">
                    <mxGeometry x="425" y="230" width="140" height="60" as="geometry"/>
                </mxCell>
                <mxCell id="10" value="SE WCSPH" style="whiteSpace=wrap;html=1;rounded=1;fontStyle=0;fontFamily=Times New Roman;fontSize=18;" parent="1" vertex="1">
                    <mxGeometry x="605" y="190" width="140" height="40" as="geometry"/>
                </mxCell>
                <mxCell id="11" value="LF WCSPH" style="whiteSpace=wrap;html=1;rounded=1;fontStyle=0;fontFamily=Times New Roman;fontSize=18;" parent="1" vertex="1">
                    <mxGeometry x="605" y="240" width="140" height="40" as="geometry"/>
                </mxCell>
                <mxCell id="12" value="RK WCSPH" style="whiteSpace=wrap;html=1;rounded=1;fontStyle=0;fontFamily=Times New Roman;fontSize=18;" parent="1" vertex="1">
                    <mxGeometry x="605" y="290" width="140" height="40" as="geometry"/>
                </mxCell>
                <mxCell id="23" style="edgeStyle=none;html=1;exitX=1;exitY=0.5;exitDx=0;exitDy=0;entryX=0;entryY=0.5;entryDx=0;entryDy=0;" parent="1" source="40" target="9" edge="1">
                    <mxGeometry relative="1" as="geometry">
                        <mxPoint x="390" y="260" as="sourcePoint"/>
                    </mxGeometry>
                </mxCell>
                <mxCell id="33" style="edgeStyle=none;html=1;exitX=1;exitY=0.5;exitDx=0;exitDy=0;entryX=0;entryY=0.5;entryDx=0;entryDy=0;" parent="1" source="41" target="15" edge="1">
                    <mxGeometry relative="1" as="geometry">
                        <mxPoint x="390" y="520" as="sourcePoint"/>
                    </mxGeometry>
                </mxCell>
                <mxCell id="34" style="edgeStyle=none;html=1;exitX=1;exitY=0.5;exitDx=0;exitDy=0;entryX=0.014;entryY=0.617;entryDx=0;entryDy=0;entryPerimeter=0;" parent="1" source="41" target="19" edge="1">
                    <mxGeometry relative="1" as="geometry">
                        <mxPoint x="390" y="520" as="sourcePoint"/>
                    </mxGeometry>
                </mxCell>
                <mxCell id="27" style="edgeStyle=none;html=1;exitX=1;exitY=0.5;exitDx=0;exitDy=0;entryX=0;entryY=0.5;entryDx=0;entryDy=0;" parent="1" source="15" target="16" edge="1">
                    <mxGeometry relative="1" as="geometry"/>
                </mxCell>
                <mxCell id="28" style="edgeStyle=none;html=1;exitX=1;exitY=0.5;exitDx=0;exitDy=0;entryX=0;entryY=0.5;entryDx=0;entryDy=0;" parent="1" source="15" target="17" edge="1">
                    <mxGeometry relative="1" as="geometry"/>
                </mxCell>
                <mxCell id="29" style="edgeStyle=none;html=1;exitX=1;exitY=0.5;exitDx=0;exitDy=0;entryX=0;entryY=0.5;entryDx=0;entryDy=0;" parent="1" source="15" target="18" edge="1">
                    <mxGeometry relative="1" as="geometry"/>
                </mxCell>
                <mxCell id="15" value="mu(I) solver" style="whiteSpace=wrap;html=1;rounded=1;fontStyle=0;fontFamily=Times New Roman;fontSize=18;" parent="1" vertex="1">
                    <mxGeometry x="425" y="420" width="140" height="40" as="geometry"/>
                </mxCell>
                <mxCell id="16" value="SE muISPH" style="whiteSpace=wrap;html=1;rounded=1;fontStyle=0;fontFamily=Times New Roman;fontSize=18;" parent="1" vertex="1">
                    <mxGeometry x="605" y="370" width="140" height="40" as="geometry"/>
                </mxCell>
                <mxCell id="17" value="LF muISPH" style="whiteSpace=wrap;html=1;rounded=1;fontStyle=0;fontFamily=Times New Roman;fontSize=18;" parent="1" vertex="1">
                    <mxGeometry x="605" y="420" width="140" height="40" as="geometry"/>
                </mxCell>
                <mxCell id="18" value="RK muISPH" style="whiteSpace=wrap;html=1;rounded=1;fontStyle=0;fontFamily=Times New Roman;fontSize=18;" parent="1" vertex="1">
                    <mxGeometry x="605" y="470" width="140" height="40" as="geometry"/>
                </mxCell>
                <mxCell id="30" style="edgeStyle=none;html=1;exitX=1;exitY=0.5;exitDx=0;exitDy=0;entryX=0;entryY=0.5;entryDx=0;entryDy=0;" parent="1" source="19" target="20" edge="1">
                    <mxGeometry relative="1" as="geometry"/>
                </mxCell>
                <mxCell id="31" style="edgeStyle=none;html=1;exitX=1;exitY=0.5;exitDx=0;exitDy=0;entryX=0;entryY=0.5;entryDx=0;entryDy=0;" parent="1" source="19" target="21" edge="1">
                    <mxGeometry relative="1" as="geometry"/>
                </mxCell>
                <mxCell id="32" style="edgeStyle=none;html=1;exitX=1;exitY=0.5;exitDx=0;exitDy=0;entryX=0;entryY=0.5;entryDx=0;entryDy=0;" parent="1" source="19" target="22" edge="1">
                    <mxGeometry relative="1" as="geometry"/>
                </mxCell>
                <mxCell id="19" value="Drucker-Prager solver" style="whiteSpace=wrap;html=1;rounded=1;fontStyle=0;fontFamily=Times New Roman;fontSize=18;" parent="1" vertex="1">
                    <mxGeometry x="425" y="570" width="140" height="60" as="geometry"/>
                </mxCell>
                <mxCell id="20" value="SE DPSPH" style="whiteSpace=wrap;html=1;rounded=1;fontStyle=0;fontFamily=Times New Roman;fontSize=18;" parent="1" vertex="1">
                    <mxGeometry x="605" y="530" width="140" height="40" as="geometry"/>
                </mxCell>
                <mxCell id="21" value="LF DPSPH" style="whiteSpace=wrap;html=1;rounded=1;fontStyle=0;fontFamily=Times New Roman;fontSize=18;" parent="1" vertex="1">
                    <mxGeometry x="605" y="580" width="140" height="40" as="geometry"/>
                </mxCell>
                <mxCell id="22" value="RK DPSPH" style="whiteSpace=wrap;html=1;rounded=1;fontStyle=0;fontFamily=Times New Roman;fontSize=18;" parent="1" vertex="1">
                    <mxGeometry x="605" y="630" width="140" height="40" as="geometry"/>
                </mxCell>
                <mxCell id="40" value="Fluid" style="rhombus;whiteSpace=wrap;html=1;fontSize=18;fontFamily=Times New Roman;rounded=0;fontStyle=0;" parent="1" vertex="1">
                    <mxGeometry x="290" y="235" width="110" height="50" as="geometry"/>
                </mxCell>
                <mxCell id="41" value="Soil" style="rhombus;whiteSpace=wrap;html=1;fontSize=18;fontFamily=Times New Roman;rounded=0;fontStyle=0;" parent="1" vertex="1">
                    <mxGeometry x="290" y="500" width="110" height="50" as="geometry"/>
                </mxCell>
                <mxCell id="43" style="edgeStyle=none;html=1;exitX=0.5;exitY=0;exitDx=0;exitDy=0;entryX=0.5;entryY=1;entryDx=0;entryDy=0;" edge="1" parent="1" source="42" target="4">
                    <mxGeometry relative="1" as="geometry"/>
                </mxCell>
                <mxCell id="42" value="Boundary treatment method" style="whiteSpace=wrap;html=1;rounded=1;fontStyle=0;fontFamily=Times New Roman;fontSize=18;" vertex="1" parent="1">
                    <mxGeometry x="90" y="460" width="140" height="60" as="geometry"/>
                </mxCell>
            </root>
        </mxGraphModel>
    </diagram>
</mxfile>